<svg id="Capa_1" enable-background="new 0 0 512 512" height="512" viewBox="0 0 512 512" width="512" xmlns="http://www.w3.org/2000/svg"><g><path d="m442.837 144.659c-9.565-7.619-16.813-18.877-20.035-31.701-15.05-48.765-59.152-82.186-107.295-81.243-3.01.059-5.959-.9-8.252-2.701-23.824-18.71-54.279-29.014-85.755-29.014-26.422 0-51.904 7.118-73.691 20.583-3.523 2.178-4.614 6.8-2.437 10.323 2.178 3.523 6.799 4.615 10.323 2.437 19.415-12 42.17-18.343 65.805-18.343 28.131 0 55.296 9.167 76.49 25.811 4.341 3.434 12.163 6.406 19.481 5.886 40.822 0 78.085 28.847 90.999 70.689 3.584 14.255 12.728 29.559 25.03 39.014 40.355 32.088 63.5 80.018 63.5 131.498 0 32.325-10.063 64.798-29.101 93.908-2.268 3.466-1.295 8.115 2.171 10.382 1.267.828 2.69 1.224 4.099 1.224 2.446 0 4.845-1.196 6.283-3.396 20.639-31.557 31.548-66.869 31.548-102.118 0-56.079-25.209-108.288-69.163-143.239z"/><path d="m447.03 408.188c-9.493 9.985-19.874 18.638-30.898 25.793-5.776-4.243-12.279-7.61-19.344-9.883l-51.24-16.498c-.002-.001-.003-.001-.005-.002l-26.049-8.387c-.94-.303-1.615-1.132-1.72-2.113-.361-2.108-4.074-41.011-4.713-43.315 14.799-10.539 28.826-23.979 37.733-39.693 5.05-8.907 9.453-18.423 13.17-28.381 29.073-2.285 52.036-26.649 52.036-56.29 0-15.16-12.337-27.493-27.5-27.493h-10.189v-30.056c0-3.906-.337-8.061-.995-12.394 2.31-2.798 3.747-6.299 3.971-10.093l1.6-26.965c.863-14.384-9.67-27.079-23.973-28.9-9.744-1.25-19.478-2.4-28.928-3.417-29.931-3.239-54.066-4.882-71.736-4.882-18.112 0-43.777 1.746-76.287 5.191-9.004.962-18.451 2.05-28.077 3.232-14.12 1.733-24.709 14.227-24.109 28.441l1.13 26.941c.177 4.193 1.836 8.052 4.526 11.013-.581 4.062-.883 7.969-.893 11.657-.085 1.87-.748 16.864-.839 30.232h-10.201c-15.164 0-27.5 12.333-27.5 27.493 0 29.484 22.72 53.749 51.574 56.254 3.603 9.954 7.85 19.467 12.749 28.341 8.938 16.196 23.312 29.99 38.408 40.674-.025.148-.054.295-.07.446l-4.436 41.962c-.104.981-.779 1.812-1.719 2.114l-77.294 24.885c-7.065 2.273-13.568 5.64-19.345 9.883-48.53-31.484-80.867-89.6-80.867-146.08 0-56.415 28.114-108.753 75.204-140.004 9.272-6.154 14.804-16.545 14.796-27.791v-.144c0-24.09 8.817-46.748 25.497-65.524 2.751-3.097 2.471-7.837-.626-10.588-3.096-2.75-7.836-2.471-10.588.626-18.884 21.256-29.283 48.064-29.283 75.486v.149c.004 6.208-3.021 11.922-8.09 15.288-51.289 34.038-81.91 91.048-81.91 152.502 0 31.826 9.058 64.146 26.194 93.465 14.975 25.622 35.052 47.276 58.374 63.11-7.715 9.027-13.046 20.099-15.167 32.291l-4.57 26.27c-.71 4.081 2.023 7.964 6.104 8.674.435.076.867.112 1.294.112 3.578 0 6.746-2.57 7.38-6.216l4.57-26.27c3.354-19.273 17.005-34.968 35.629-40.959l8.912-2.869c10.15 17.468 15.301 40.641 15.301 68.994 0 4.142 3.358 7.5 7.5 7.5s7.5-3.358 7.5-7.5c0-29.562-5.292-54.292-15.735-73.683l21.838-7.031c6.646 10.065 18.531 18.826 34.169 25.035 2.79 1.022 7.49.449 9.738-4.203 1.528-3.85-.353-8.209-4.203-9.738-10.87-4.316-19.332-9.833-24.63-15.947l16.907-5.443c6.585-2.121 11.311-7.937 12.038-14.815l3.696-34.966c17.493 10.069 33.994 15.66 42.161 15.66 8.436 0 25.81-5.934 44.065-16.561l3.792 35.868c.728 6.879 5.453 12.694 12.039 14.814l16.9 5.441c-12.679 14.602-42.956 24.908-75.797 24.908-6.432 0-12.842-.376-19.053-1.118-4.115-.489-7.845 2.445-8.336 6.558s2.445 7.845 6.558 8.336c6.799.812 13.807 1.223 20.831 1.223 41.169 0 77.055-14.134 90.877-35.053l21.837 7.031c-10.443 19.392-15.735 44.122-15.735 73.684 0 4.142 3.357 7.5 7.5 7.5s7.5-3.358 7.5-7.5c0-28.352 5.151-51.524 15.302-68.994l8.913 2.87c18.622 5.991 32.273 21.686 35.628 40.959l4.57 26.27c.634 3.646 3.802 6.216 7.38 6.216.427 0 .859-.037 1.294-.112 4.081-.71 6.813-4.594 6.104-8.675l-4.57-26.271c-2.122-12.192-7.454-23.266-15.17-32.293 10.842-7.371 21.072-16.058 30.473-25.947 2.854-3.002 2.734-7.75-.269-10.603-3.001-2.854-7.749-2.735-10.603.268zm-46.03-178.769c0 19.524-13.569 35.931-31.772 40.32 4.864-16.896 7.844-34.737 8.768-52.812h10.504c6.893 0 12.5 5.604 12.5 12.492zm-290 0c0-6.889 5.607-12.493 12.5-12.493h10.512c.889 18.08 3.742 35.895 8.428 52.736-18.037-4.506-31.44-20.837-31.44-40.243zm62.456 77.346c-15.971-28.929-24.766-65.12-24.766-101.907 0-14.238.833-32.46.842-32.642.005-.115.008-.231.008-.346 0-1.965.111-4.027.317-6.161 1.075-.092 2.146-.274 3.199-.565 46.118-12.73 93.497-16.811 140.823-12.126 4.12.406 7.794-2.603 8.202-6.725.407-4.122-2.604-7.794-6.726-8.202-49.167-4.867-98.387-.629-146.29 12.594-.463.127-.919.13-1.336.011-.812-.233-1.78-.976-1.836-2.302l-1.13-26.942c-.272-6.458 4.538-12.135 10.951-12.922 9.548-1.173 18.916-2.251 27.835-3.204 31.981-3.389 57.114-5.107 74.7-5.107 16.892 0 41.14 1.658 70.127 4.795 9.354 1.006 18.985 2.144 28.636 3.382 6.505.828 11.293 6.593 10.901 13.128l-1.602 26.972c-.072 1.226-.956 1.958-1.673 2.208-.483.167-.984.179-1.48.043-10.622-2.938-21.474-5.469-32.254-7.521-4.061-.772-7.996 1.896-8.77 5.965-.775 4.069 1.896 7.996 5.965 8.771 10.38 1.976 20.83 4.413 31.074 7.247 1.258.345 2.536.541 3.816.603.205 2.099.319 4.129.319 6.059v32.988c0 36.592-9.079 72.757-25.565 101.833-19.49 34.385-70.268 57.676-82.745 57.676-12.401 0-62.589-23.262-81.542-57.603z"/><path d="m301.5 199.927c-4.143 0-7.5 3.358-7.5 7.5v18.993c0 4.142 3.357 7.5 7.5 7.5s7.5-3.358 7.5-7.5v-18.993c0-4.142-3.357-7.5-7.5-7.5z"/><path d="m218 226.42v-18.993c0-4.142-3.358-7.5-7.5-7.5s-7.5 3.358-7.5 7.5v18.993c0 4.142 3.358 7.5 7.5 7.5s7.5-3.357 7.5-7.5z"/><path d="m239.103 264.094c5.447 2.774 11.421 4.162 17.397 4.162 5.975 0 11.951-1.388 17.398-4.162 3.69-1.88 5.159-6.396 3.278-10.087-1.88-3.691-6.394-5.158-10.087-3.279-6.63 3.377-14.548 3.377-21.18 0-3.69-1.88-8.207-.412-10.087 3.279-1.879 3.691-.41 8.207 3.281 10.087z"/><path d="m291.514 284.896h-70.027c-3.628 0-7.016 1.702-9.062 4.554-1.939 2.703-2.446 6.046-1.389 9.173 4.249 12.566 19.863 31.262 45.465 31.262 25.603 0 41.216-18.696 45.464-31.26 1.058-3.126.553-6.47-1.387-9.174-2.047-2.851-5.434-4.555-9.064-4.555zm-35.014 29.99c-14.423 0-23.491-8.364-28.038-14.989h56.076c-4.547 6.624-13.614 14.989-28.038 14.989z"/><path d="m327 182.437c0-4.142-3.357-7.5-7.5-7.5h-36c-4.143 0-7.5 3.358-7.5 7.5s3.357 7.5 7.5 7.5h36c4.143 0 7.5-3.358 7.5-7.5z"/><path d="m236 182.437c0-4.142-3.358-7.5-7.5-7.5h-36c-4.142 0-7.5 3.358-7.5 7.5s3.358 7.5 7.5 7.5h36c4.142 0 7.5-3.358 7.5-7.5z"/></g></svg>